<svg width="16.000000" height="16.000000" viewBox="0 0 16 16" fill="none" xmlns="http://www.w3.org/2000/svg" xmlns:xlink="http://www.w3.org/1999/xlink">
	<defs>
		<clipPath id="clip1_413">
			<rect id="abacus" width="16.000000" height="16.000000" fill="white" fill-opacity="0"/>
		</clipPath>
	</defs>
	<rect id="abacus" width="16.000000" height="16.000000" fill="#FFFFFF" fill-opacity="0"/>
	<g clip-path="url(#clip1_413)">
		<path id="Vector" d="M15.5312 13.1875L15.0625 13.1875L15.0625 1.40625C15.0625 0.630859 14.4316 0 13.6562 0C12.9336 0 12.3369 0.547852 12.2588 1.25L11.3125 1.25C11.3125 0.991089 11.1025 0.78125 10.8438 0.78125C10.585 0.78125 10.375 0.991089 10.375 1.25L9.4375 1.25C9.4375 0.991089 9.22754 0.78125 8.96875 0.78125C8.70996 0.78125 8.5 0.991089 8.5 1.25L7.5625 1.25C7.5625 0.991089 7.35254 0.78125 7.09375 0.78125C6.83496 0.78125 6.625 0.991089 6.625 1.25L3.74121 1.25C3.66309 0.547852 3.06641 0 2.34375 0C1.56836 0 0.9375 0.630859 0.9375 1.40625L0.9375 13.1875L0.46875 13.1875C0.209961 13.1875 0 13.3973 0 13.6562L0 15.5312C0 15.7902 0.209961 16 0.46875 16L15.5312 16C15.79 16 16 15.7902 16 15.5312L16 13.6562C16 13.3973 15.79 13.1875 15.5312 13.1875ZM13.6562 0.9375C13.915 0.9375 14.125 1.14783 14.125 1.40625L14.125 13.1875L13.1875 13.1875L13.1875 1.40625C13.1875 1.14783 13.3975 0.9375 13.6562 0.9375ZM3.75 13.1875L3.75 11.5625L4.6875 11.5625C4.6875 11.8214 4.89746 12.0312 5.15625 12.0312C5.41504 12.0312 5.625 11.8214 5.625 11.5625L8.5 11.5625C8.5 11.8214 8.70996 12.0312 8.96875 12.0312C9.22754 12.0312 9.4375 11.8214 9.4375 11.5625L10.375 11.5625C10.375 11.8214 10.585 12.0312 10.8438 12.0312C11.1025 12.0312 11.3125 11.8214 11.3125 11.5625L12.25 11.5625L12.25 13.1875L3.75 13.1875ZM7.09375 2.65625C7.35254 2.65625 7.5625 2.44641 7.5625 2.1875L8.5 2.1875C8.5 2.44641 8.70996 2.65625 8.96875 2.65625C9.22754 2.65625 9.4375 2.44641 9.4375 2.1875L10.375 2.1875C10.375 2.44641 10.585 2.65625 10.8438 2.65625C11.1025 2.65625 11.3125 2.44641 11.3125 2.1875L12.25 2.1875L12.25 3.59375L11.3125 3.59375C11.3125 3.33496 11.1025 3.125 10.8438 3.125C10.585 3.125 10.375 3.33496 10.375 3.59375L9.4375 3.59375C9.4375 3.33496 9.22754 3.125 8.96875 3.125C8.70996 3.125 8.5 3.33496 8.5 3.59375L7.5625 3.59375C7.5625 3.33496 7.35254 3.125 7.09375 3.125C6.83496 3.125 6.625 3.33496 6.625 3.59375L3.75 3.59375L3.75 2.1875L6.625 2.1875C6.625 2.44641 6.83496 2.65625 7.09375 2.65625ZM10.8438 10.1562C10.585 10.1562 10.375 10.3662 10.375 10.625L9.4375 10.625C9.4375 10.3662 9.22754 10.1562 8.96875 10.1562C8.70996 10.1562 8.5 10.3662 8.5 10.625L5.625 10.625C5.625 10.3662 5.41504 10.1562 5.15625 10.1562C4.89746 10.1562 4.6875 10.3662 4.6875 10.625L3.75 10.625L3.75 9.21875L6.625 9.21875C6.625 9.47766 6.83496 9.6875 7.09375 9.6875C7.35254 9.6875 7.5625 9.47766 7.5625 9.21875L8.5 9.21875C8.5 9.47766 8.70996 9.6875 8.96875 9.6875C9.22754 9.6875 9.4375 9.47766 9.4375 9.21875L10.375 9.21875C10.375 9.47766 10.585 9.6875 10.8438 9.6875C11.1025 9.6875 11.3125 9.47766 11.3125 9.21875L12.25 9.21875L12.25 10.625L11.3125 10.625C11.3125 10.3662 11.1025 10.1562 10.8438 10.1562ZM7.09375 5C7.35254 5 7.5625 4.79016 7.5625 4.53125L8.5 4.53125C8.5 4.79016 8.70996 5 8.96875 5C9.22754 5 9.4375 4.79016 9.4375 4.53125L10.375 4.53125C10.375 4.79016 10.585 5 10.8438 5C11.1025 5 11.3125 4.79016 11.3125 4.53125L12.25 4.53125L12.25 5.9375L9.375 5.9375C9.375 5.67871 9.16504 5.46875 8.90625 5.46875C8.64746 5.46875 8.4375 5.67871 8.4375 5.9375L7.5 5.9375C7.5 5.67871 7.29004 5.46875 7.03125 5.46875C6.77246 5.46875 6.5625 5.67871 6.5625 5.9375L5.625 5.9375C5.625 5.67871 5.41504 5.46875 5.15625 5.46875C4.89746 5.46875 4.6875 5.67871 4.6875 5.9375L3.75 5.9375L3.75 4.53125L6.625 4.53125C6.625 4.79016 6.83496 5 7.09375 5ZM11.3125 8.28125C11.3125 8.02234 11.1025 7.8125 10.8438 7.8125C10.585 7.8125 10.375 8.02234 10.375 8.28125L9.4375 8.28125C9.4375 8.02234 9.22754 7.8125 8.96875 7.8125C8.70996 7.8125 8.5 8.02234 8.5 8.28125L7.5625 8.28125C7.5625 8.02234 7.35254 7.8125 7.09375 7.8125C6.83496 7.8125 6.625 8.02234 6.625 8.28125L3.75 8.28125L3.75 6.875L4.6875 6.875C4.6875 7.13391 4.89746 7.34375 5.15625 7.34375C5.41504 7.34375 5.625 7.13391 5.625 6.875L6.5625 6.875C6.5625 7.13391 6.77246 7.34375 7.03125 7.34375C7.29004 7.34375 7.5 7.13391 7.5 6.875L8.4375 6.875C8.4375 7.13391 8.64746 7.34375 8.90625 7.34375C9.16504 7.34375 9.375 7.13391 9.375 6.875L12.25 6.875L12.25 8.28125L11.3125 8.28125ZM1.875 1.40625C1.875 1.14783 2.08496 0.9375 2.34375 0.9375C2.60254 0.9375 2.8125 1.14783 2.8125 1.40625L2.8125 13.1875L1.875 13.1875L1.875 1.40625ZM15.0625 15.0625L0.9375 15.0625L0.9375 14.125L15.0625 14.125L15.0625 15.0625Z" fill="#1D1D1B" fill-opacity="1.000000" fill-rule="nonzero"/>
	</g>
</svg>
