<svg width="16.000000" height="16.000000" viewBox="0 0 16 16" fill="none" xmlns="http://www.w3.org/2000/svg" xmlns:xlink="http://www.w3.org/1999/xlink">
	<defs>
		<clipPath id="clip1_425">
			<rect id="agenda" width="16.000000" height="16.000000" fill="white" fill-opacity="0"/>
		</clipPath>
	</defs>
	<rect id="agenda" width="16.000000" height="16.000000" fill="#FFFFFF" fill-opacity="0"/>
	<g clip-path="url(#clip1_425)">
		<path id="Vector" d="M15.5312 5.65625C15.79 5.65625 16 5.44641 16 5.1875L16 3.3125C16 3.05359 15.79 2.84375 15.5312 2.84375L14.125 2.84375L14.125 0.46875C14.125 0.209839 13.915 0 13.6562 0L1.40625 0C1.14746 0 0.9375 0.209839 0.9375 0.46875L0.9375 1.90625L0.46875 1.90625C0.209961 1.90625 0 2.11621 0 2.375C0 2.63391 0.209961 2.84375 0.46875 2.84375L0.9375 2.84375L0.9375 3.78125L0.46875 3.78125C0.209961 3.78125 0 3.99121 0 4.25C0 4.50891 0.209961 4.71875 0.46875 4.71875L0.9375 4.71875L0.9375 5.65625L0.46875 5.65625C0.209961 5.65625 0 5.86621 0 6.125C0 6.38391 0.209961 6.59375 0.46875 6.59375L0.9375 6.59375L0.9375 7.53125L0.46875 7.53125C0.209961 7.53125 0 7.74121 0 8C0 8.25891 0.209961 8.46875 0.46875 8.46875L0.9375 8.46875L0.9375 9.40625L0.46875 9.40625C0.209961 9.40625 0 9.61621 0 9.875C0 10.1339 0.209961 10.3438 0.46875 10.3438L0.9375 10.3438L0.9375 11.2812L0.46875 11.2812C0.209961 11.2812 0 11.4911 0 11.75C0 12.0089 0.209961 12.2188 0.46875 12.2188L0.9375 12.2188L0.9375 13.1562L0.46875 13.1562C0.209961 13.1562 0 13.3662 0 13.625C0 13.8839 0.209961 14.0938 0.46875 14.0938L0.9375 14.0938L0.9375 15.5312C0.9375 15.7902 1.14746 16 1.40625 16L13.6562 16C13.915 16 14.125 15.7902 14.125 15.5312L14.125 13.1562L15.5312 13.1562C15.79 13.1562 16 12.9464 16 12.6875L16 10.8125C16 10.5536 15.79 10.3438 15.5312 10.3438L14.125 10.3438L14.125 9.40625L15.5312 9.40625C15.79 9.40625 16 9.19641 16 8.9375L16 7.0625C16 6.80359 15.79 6.59375 15.5312 6.59375L14.125 6.59375L14.125 5.65625L15.5312 5.65625ZM14.125 3.78125L15.0625 3.78125L15.0625 4.71875L14.125 4.71875L14.125 3.78125ZM3.71875 15.0625L1.875 15.0625L1.875 14.0938L2.3125 14.0938C2.57129 14.0938 2.78125 13.8839 2.78125 13.625C2.78125 13.3662 2.57129 13.1562 2.3125 13.1562L1.875 13.1562L1.875 12.2188L2.3125 12.2188C2.57129 12.2188 2.78125 12.0089 2.78125 11.75C2.78125 11.4911 2.57129 11.2812 2.3125 11.2812L1.875 11.2812L1.875 10.3438L2.3125 10.3438C2.57129 10.3438 2.78125 10.1339 2.78125 9.875C2.78125 9.61621 2.57129 9.40625 2.3125 9.40625L1.875 9.40625L1.875 8.46875L2.3125 8.46875C2.57129 8.46875 2.78125 8.25891 2.78125 8C2.78125 7.74121 2.57129 7.53125 2.3125 7.53125L1.875 7.53125L1.875 6.59375L2.3125 6.59375C2.57129 6.59375 2.78125 6.38391 2.78125 6.125C2.78125 5.86621 2.57129 5.65625 2.3125 5.65625L1.875 5.65625L1.875 4.71875L2.3125 4.71875C2.57129 4.71875 2.78125 4.50891 2.78125 4.25C2.78125 3.99121 2.57129 3.78125 2.3125 3.78125L1.875 3.78125L1.875 2.84375L2.3125 2.84375C2.57129 2.84375 2.78125 2.63391 2.78125 2.375C2.78125 2.11621 2.57129 1.90625 2.3125 1.90625L1.875 1.90625L1.875 0.9375L3.71875 0.9375L3.71875 15.0625ZM13.1875 15.0625L4.65625 15.0625L4.65625 0.9375L13.1875 0.9375L13.1875 15.0625ZM15.0625 11.2812L15.0625 12.2188L14.125 12.2188L14.125 11.2812L15.0625 11.2812ZM15.0625 7.53125L15.0625 8.46875L14.125 8.46875L14.125 7.53125L15.0625 7.53125Z" fill="#1D1D1B" fill-opacity="1.000000" fill-rule="nonzero"/>
	</g>
</svg>
