<svg width="16.000000" height="16.000000" viewBox="0 0 16 16" fill="none" xmlns="http://www.w3.org/2000/svg" xmlns:xlink="http://www.w3.org/1999/xlink">
	<defs>
		<clipPath id="clip1_417">
			<rect id="briefcase" width="16.000000" height="16.000000" fill="white" fill-opacity="0"/>
		</clipPath>
	</defs>
	<rect id="briefcase" width="16.000000" height="16.000000" fill="#FFFFFF" fill-opacity="0"/>
	<g clip-path="url(#clip1_417)">
		<path id="Vector" d="M15.5312 3.15625L12.6719 3.15625L12.6719 1.72253C12.6719 0.772705 11.8994 0 10.9492 0L5.05078 0C4.10059 0 3.32812 0.772705 3.32812 1.72253L3.32812 3.15625L0.46875 3.15625C0.209961 3.15625 0 3.36609 0 3.625L0 8.15625C0 8.36694 0.140625 8.55188 0.34375 8.60803L0.84375 8.74634L0.84375 15.5312C0.84375 15.7902 1.05371 16 1.3125 16L14.6875 16C14.9463 16 15.1562 15.7902 15.1562 15.5312L15.1562 8.73999L15.6504 8.6095C15.8564 8.55518 16 8.36914 16 8.15625L16 3.625C16 3.36609 15.79 3.15625 15.5312 3.15625ZM4.26562 1.72253C4.26562 1.28967 4.61816 0.9375 5.05078 0.9375L10.9492 0.9375C11.3818 0.9375 11.7344 1.28967 11.7344 1.72253L11.7344 3.15625L4.26562 3.15625L4.26562 1.72253ZM0.9375 4.09375L15.0625 4.09375L15.0625 7.79504L10.25 9.06433L10.25 8.71875C10.25 8.45984 10.04 8.25 9.78125 8.25L6.21875 8.25C5.95996 8.25 5.75 8.45984 5.75 8.71875L5.75 9.13086L0.9375 7.79956L0.9375 4.09375ZM9.3125 9.1875L9.3125 11.0625L6.6875 11.0625L6.6875 9.1875L9.3125 9.1875ZM14.2188 15.0625L1.78125 15.0625L1.78125 9.00574L5.75 10.1035L5.75 11.5312C5.75 11.7902 5.95996 12 6.21875 12L9.78125 12C10.04 12 10.25 11.7902 10.25 11.5312L10.25 10.0339L14.2188 8.98718L14.2188 15.0625Z" fill="#1D1D1B" fill-opacity="1.000000" fill-rule="nonzero"/>
	</g>
</svg>
