<svg width="24.000000" height="24.000000" viewBox="0 0 24 24" fill="none" xmlns="http://www.w3.org/2000/svg" xmlns:xlink="http://www.w3.org/1999/xlink">
	<defs>
		<clipPath id="clip1_54">
			<rect id="shopping-cart 1" width="24.000000" height="24.000000" fill="white" fill-opacity="0"/>
		</clipPath>
	</defs>
	<rect id="shopping-cart 1" width="24.000000" height="24.000000" fill="#FFFFFF" fill-opacity="0"/>
	<g clip-path="url(#clip1_54)">
		<path id="Vector" d="M23.2959 1.72754L18.9746 1.72754C18.1494 1.72754 17.3281 2.34937 17.1035 3.14331L15.9365 7.27478C15.8027 7.23767 15.6621 7.21619 15.5166 7.21619L1.55469 7.21619C1.11035 7.21619 0.688477 7.40051 0.397461 7.7218C0.106445 8.04309 -0.0361328 8.48096 0.0078125 8.9231L0.65918 15.5233C0.746094 16.403 1.50586 17.092 2.38965 17.092L13.2266 17.092C14.0547 17.092 14.873 16.4656 15.0889 15.666L16.4463 10.6466L18.459 3.52612C18.5127 3.33252 18.7734 3.13538 18.9746 3.13538L23.2959 3.13538C23.6846 3.13538 24 2.82031 24 2.43152C24 2.04272 23.6846 1.72754 23.2959 1.72754ZM13.7305 15.2986C13.6787 15.4896 13.4238 15.6843 13.2266 15.6843L2.38965 15.6843C2.23535 15.6843 2.0752 15.5389 2.05957 15.3851L1.4082 8.78479C1.4043 8.73596 1.41504 8.69519 1.44043 8.66711C1.46582 8.63879 1.50586 8.6239 1.55469 8.6239L15.5166 8.6239C15.5234 8.6239 15.5293 8.62415 15.5342 8.62451C15.5332 8.62976 15.5322 8.63562 15.5303 8.64221L13.7305 15.2986Z" fill="#000002" fill-opacity="1.000000" fill-rule="nonzero"/>
		<path id="Vector" d="M4.44434 17.8938C3.2373 17.8938 2.25488 18.876 2.25488 20.0831C2.25488 21.2903 3.2373 22.2725 4.44434 22.2725C5.65137 22.2725 6.63379 21.2903 6.63379 20.0831C6.63379 18.876 5.65137 17.8938 4.44434 17.8938ZM4.44434 20.8647C4.01367 20.8647 3.66309 20.514 3.66309 20.0831C3.66309 19.6522 4.01367 19.3015 4.44434 19.3015C4.875 19.3015 5.22559 19.6522 5.22559 20.0831C5.22559 20.514 4.875 20.8647 4.44434 20.8647Z" fill="#000002" fill-opacity="1.000000" fill-rule="nonzero"/>
		<path id="Vector" d="M11.3867 17.8938C10.1797 17.8938 9.19727 18.876 9.19727 20.0831C9.19727 21.2903 10.1797 22.2725 11.3867 22.2725C12.5938 22.2725 13.5762 21.2903 13.5762 20.0831C13.5762 18.876 12.5938 17.8938 11.3867 17.8938ZM11.3867 20.8647C10.9561 20.8647 10.6055 20.514 10.6055 20.0831C10.6055 19.6522 10.9561 19.3015 11.3867 19.3015C11.8174 19.3015 12.168 19.6522 12.168 20.0831C12.168 20.514 11.8174 20.8647 11.3867 20.8647Z" fill="#000002" fill-opacity="1.000000" fill-rule="nonzero"/>
	</g>
</svg>
