<svg width="24.000000" height="24.000000" viewBox="0 0 24 24" fill="none" xmlns="http://www.w3.org/2000/svg" xmlns:xlink="http://www.w3.org/1999/xlink">
	<defs>
		<clipPath id="clip1_45">
			<rect id="lover 1" width="24.000000" height="24.000000" fill="white" fill-opacity="0"/>
		</clipPath>
	</defs>
	<rect id="lover 1" width="24.000000" height="24.000000" fill="#FFFFFF" fill-opacity="0"/>
	<g clip-path="url(#clip1_45)">
		<path id="Vector" d="M23.9883 8.53369C23.8984 6.84216 23.1816 5.25378 21.9727 4.06128C20.7441 2.85071 19.1406 2.18408 17.457 2.18408C14.9355 2.18408 13.1504 4.13159 12.1914 5.17798C12.1367 5.23743 12.0781 5.30139 12.0205 5.36316C11.9902 5.32837 11.959 5.29358 11.9307 5.2605C11.0537 4.26184 9.22949 2.18408 6.54395 2.18408C4.86035 2.18408 3.25586 2.85071 2.02832 4.06128C0.818359 5.25378 0.102539 6.84216 0.0117188 8.53369C-0.078125 10.2153 0.349609 11.6744 1.39746 13.265C2.33691 14.6908 4.7832 16.9452 6.59277 18.4424C8.45312 19.9813 10.9033 21.8158 12.0107 21.8158C13.1357 21.8158 15.5762 19.9852 17.4258 18.4495C19.2217 16.9587 21.6553 14.7063 22.6035 13.2644C23.3086 12.1917 24.1035 10.6843 23.9883 8.53369ZM21.3965 12.4709C20.708 13.5189 18.7656 15.4548 16.5635 17.2887C13.9385 19.4753 12.3848 20.3372 12.0117 20.3715C11.6396 20.3326 10.0811 19.4622 7.44336 17.2715C5.22852 15.4324 3.28418 13.5029 2.60352 12.4703C1.73535 11.1542 1.38086 9.96387 1.45312 8.61072C1.60059 5.86328 3.88379 3.62805 6.54395 3.62805C8.5752 3.62805 10.0518 5.30969 10.8447 6.21301C11.3115 6.74414 11.5684 7.03674 12 7.03674C12.4463 7.03674 12.7334 6.72302 13.2559 6.15356C14.1211 5.20886 15.5703 3.62805 17.457 3.62805C20.1162 3.62805 22.3994 5.86328 22.5469 8.61072C22.6201 9.97925 22.2764 11.1338 21.3965 12.4709Z" fill="#1D1D1B" fill-opacity="1.000000" fill-rule="nonzero"/>
	</g>
</svg>
