<svg width="20.000000" height="20.000000" viewBox="0 0 20 20" fill="none" xmlns="http://www.w3.org/2000/svg" xmlns:xlink="http://www.w3.org/1999/xlink">
	<desc>
			Created with Pixso.
	</desc>
	<defs>
		<clipPath id="clip1_23">
			<rect id="Frame 8" width="20.000000" height="20.000000" fill="white" fill-opacity="0"/>
		</clipPath>
	</defs>
	<g clip-path="url(#clip1_23)">
		<path id="Vector" d="M9.59961 2C6.50391 2 4 4.50403 4 7.59998C4 10.9041 7.46582 15.4458 8.94434 17.2332C9.34473 17.7179 9.59961 18 9.59961 18C9.59961 18 9.85449 17.7179 10.2559 17.2332C11.7344 15.4458 15.2002 10.9041 15.2002 7.59998C15.2002 4.50403 12.6963 2 9.59961 2ZM9.59961 16.4564Q9.64844 16.3972 9.69824 16.3354Q10.7207 15.0759 11.5713 13.8157Q12.748 12.0717 13.4121 10.588Q14.2002 8.82996 14.2002 7.59998Q14.2002 7.06104 14.0811 6.5498Q13.9932 6.17139 13.8389 5.80811Q13.6768 5.42261 13.4512 5.07837Q13.1934 4.68542 12.8535 4.34607Q12.5146 4.00684 12.1221 3.74927Q11.7773 3.52368 11.3916 3.36084Q11.0283 3.20728 10.6504 3.11914Q10.1387 3 9.59961 3Q9.06055 3 8.5498 3.11914Q8.1709 3.20728 7.80762 3.36084Q7.42285 3.52368 7.07812 3.74927Q6.68555 4.00684 6.3457 4.34607Q6.00684 4.68542 5.74902 5.07837Q5.52344 5.42261 5.36035 5.80811Q5.20703 6.17139 5.11914 6.5498Q5 7.06104 5 7.59998Q5 8.82996 5.78809 10.588Q6.45215 12.0717 7.62891 13.8157Q8.47949 15.0759 9.50098 16.3354Q9.55176 16.3972 9.59961 16.4564ZM7.10547 9.26697Q7.26758 9.51038 7.47852 9.72131Q7.68945 9.93225 7.93262 10.0948Q8.17676 10.2574 8.45215 10.3716Q8.72754 10.4858 9.01465 10.543Q9.30176 10.6 9.59961 10.6Q9.89844 10.6 10.1855 10.543Q10.4727 10.4858 10.748 10.3716Q11.0234 10.2574 11.2666 10.0948Q11.5107 9.93225 11.7217 9.72131Q11.9326 9.51038 12.0947 9.26709Q12.2578 9.02368 12.3721 8.74805Q12.4854 8.47241 12.543 8.1853Q12.5996 7.89832 12.5996 7.59998Q12.5996 7.30164 12.543 7.01465Q12.4854 6.72766 12.3721 6.4519Q12.2578 6.17627 12.0947 5.93298Q11.9326 5.6897 11.7217 5.47864Q11.5107 5.2677 11.2666 5.1051Q11.0234 4.9425 10.748 4.82837Q10.4727 4.71423 10.1855 4.6571Q9.89844 4.59998 9.59961 4.59998Q9.30176 4.59998 9.01465 4.6571Q8.72754 4.71423 8.45215 4.82837Q8.17676 4.9425 7.93262 5.1051Q7.68945 5.2677 7.47852 5.47864Q7.26758 5.6897 7.10547 5.93298Q6.94238 6.17627 6.82812 6.4519Q6.71387 6.72754 6.65723 7.01465Q6.59961 7.30164 6.59961 7.59998Q6.59961 7.89844 6.65723 8.18542Q6.71387 8.47241 6.82812 8.74805Q6.94238 9.02368 7.10547 9.26697ZM9.59961 9.59998C9.06934 9.59998 8.56055 9.38928 8.18555 9.01416C7.81055 8.63916 7.59961 8.13049 7.59961 7.59998C7.59961 7.06958 7.81055 6.56091 8.18555 6.18579C8.56055 5.81067 9.06934 5.59998 9.59961 5.59998C10.1309 5.59998 10.6387 5.81067 11.0146 6.18579C11.3896 6.56091 11.5996 7.06958 11.5996 7.59998C11.5996 8.13049 11.3896 8.63916 11.0146 9.01416C10.6387 9.38928 10.1309 9.59998 9.59961 9.59998Z" fill="#1D1D1B" fill-opacity="1.000000" fill-rule="evenodd"/>
	</g>
</svg>
