<svg width="16.000000" height="16.000000" viewBox="0 0 16 16" fill="none" xmlns="http://www.w3.org/2000/svg" xmlns:xlink="http://www.w3.org/1999/xlink">
	<defs>
		<clipPath id="clip1_421">
			<rect id="stationery" width="16.000000" height="16.000000" fill="white" fill-opacity="0"/>
		</clipPath>
	</defs>
	<rect id="stationery" width="16.000000" height="16.000000" fill="#FFFFFF" fill-opacity="0"/>
	<g clip-path="url(#clip1_421)">
		<path id="Vector" d="M14.7168 7.21899C14.7168 6.4436 14.0859 5.81274 13.3105 5.81274L12.9727 5.81274L13.5459 3.67273C13.5713 3.57605 13.5654 3.47339 13.5293 3.38013L12.6064 1.03015C12.5527 0.891602 12.4355 0.787109 12.292 0.748657C12.1484 0.710083 11.9941 0.742065 11.8779 0.834839L9.9043 2.40881C9.82617 2.47131 9.76953 2.55725 9.74414 2.65405L8.89746 5.81274L7.83789 5.81274L4.86328 0.660034C4.68164 0.346069 4.38379 0.125488 4.02344 0.0388184C3.67188 -0.0455322 3.30469 0.00854492 2.9873 0.191528C2.4541 0.499512 2.19531 1.09851 2.30664 1.65503L1.54688 2.09363C1.43945 2.15576 1.36035 2.25806 1.32812 2.37817C1.2959 2.49829 1.31348 2.62622 1.375 2.73389L2.5332 4.73889C2.62012 4.88928 2.77734 4.97339 2.93945 4.97339C3.01855 4.97339 3.09961 4.95312 3.17285 4.9104C3.39746 4.78101 3.47461 4.49438 3.34473 4.27014L2.42188 2.67114L2.71582 2.50122L3.00684 3.00549L3.00684 3.00549L3.00684 3.00562L4.62793 5.81274L4.43262 5.81274C3.65723 5.81274 3.02637 6.4436 3.02637 7.21899C3.02637 7.97339 3.62402 8.5907 4.37012 8.62354L4.37012 13.7172C4.37012 14.976 5.43555 16 6.74512 16L10.998 16C12.3076 16 13.373 14.976 13.373 13.7172L13.373 8.62354C14.1191 8.5907 14.7168 7.97339 14.7168 7.21899ZM11.9658 1.96375L12.6006 3.5791L12.5596 3.73193L10.5684 3.19849L10.6094 3.04565L11.9658 1.96375ZM10.3252 4.104L12.3164 4.63745L12.002 5.81274L9.86816 5.81274L10.3252 4.104ZM3.45605 1.00342C3.56445 0.941162 3.6875 0.922241 3.80469 0.950317C3.91211 0.976318 4 1.03967 4.05176 1.12878L4.36914 1.6781L3.58496 2.13086L3.26758 1.58154C3.15723 1.39087 3.24414 1.1261 3.45605 1.00342ZM4.05371 2.94275L4.83789 2.48999L6.75586 5.81274L5.70996 5.81274L4.05371 2.94275ZM12.4355 13.7172C12.4355 14.459 11.79 15.0625 10.998 15.0625L6.74512 15.0625C5.95215 15.0625 5.30762 14.459 5.30762 13.7172L5.30762 8.62512L12.4355 8.62512L12.4355 13.7172ZM13.3105 7.68762L4.43262 7.68762C4.1748 7.68762 3.96387 7.47742 3.96387 7.21899C3.96387 6.96045 4.1748 6.75024 4.43262 6.75024L9.25391 6.75024C9.25488 6.75024 9.25586 6.75037 9.25684 6.75037C9.25781 6.75037 9.25879 6.75024 9.25977 6.75024L13.3105 6.75024C13.5684 6.75024 13.7793 6.96045 13.7793 7.21899C13.7793 7.47742 13.5684 7.68762 13.3105 7.68762Z" fill="#1D1D1B" fill-opacity="1.000000" fill-rule="nonzero"/>
	</g>
</svg>
