<svg width="16.000000" height="16.000000" viewBox="0 0 16 16" fill="none" xmlns="http://www.w3.org/2000/svg" xmlns:xlink="http://www.w3.org/1999/xlink">
	<defs>
		<clipPath id="clip1_430">
			<rect id="tag 1" width="16.000000" height="16.000000" fill="white" fill-opacity="0"/>
		</clipPath>
	</defs>
	<rect id="tag 1" width="16.000000" height="16.000000" fill="#FFFFFF" fill-opacity="0"/>
	<g clip-path="url(#clip1_430)">
		<path id="Vector" d="M14.6396 6.87537L14.3701 4.54297C15.8613 3.4624 16.4795 1.64905 15.5859 0.755981C15.2051 0.374634 14.6084 0.250244 13.9512 0.414673C13.3682 0.560303 12.7715 0.917114 12.2686 1.41931C12.2627 1.42554 12.2568 1.43188 12.251 1.43799L8.80273 1.03857C8.19629 0.968262 7.59082 1.1792 7.1582 1.61108L1.41406 7.35559C0.632812 8.13672 0.632812 9.40295 1.41406 10.1841L5.49414 14.2643C6.27539 15.0454 7.54199 15.0454 8.32324 14.2643L14.0674 8.51978C14.499 8.08789 14.71 7.48218 14.6396 6.87537ZM14.1787 1.32483C14.5088 1.24231 14.7803 1.27673 14.9229 1.41931C15.2695 1.76648 14.9521 2.72913 14.2402 3.42871C14.2402 3.42871 14.2852 2.82324 14.1318 2.48572C13.9561 2.09998 13.3643 1.71826 13.3643 1.71826C13.6318 1.52869 13.9131 1.39111 14.1787 1.32483ZM8.66504 1.96716L11.5898 2.30591C11.4463 2.55872 11.3389 2.81824 11.2715 3.07544C11.0898 2.89368 10.7949 2.89368 10.6133 3.07544L10.6104 3.07788C10.4277 3.26111 10.4277 3.55811 10.6104 3.74121L11.9375 5.06812C12.1201 5.25134 12.417 5.25134 12.6006 5.06812C12.7842 4.88489 12.7842 4.58789 12.6006 4.40466L12.2686 4.073C12.126 3.93042 12.0918 3.6593 12.1748 3.3291C12.248 3.03467 12.4092 2.71997 12.6328 2.42664L12.7607 2.44153L13.2373 2.91821L13.7119 7.01318C13.7471 7.31653 13.6416 7.61938 13.4248 7.83533L7.61621 13.6447C7.22559 14.0352 6.5918 14.0352 6.20117 13.6447L2.03418 9.47693C1.64355 9.08643 1.64355 8.45325 2.03418 8.06274L7.84277 2.25342C8.05957 2.03748 8.3623 1.93201 8.66504 1.96716Z" fill="#E0001B" fill-opacity="1.000000" fill-rule="nonzero"/>
		<path id="Vector" d="M5.17871 6.94116C4.40234 6.94116 3.77148 7.57251 3.77148 8.34851C3.77148 9.12439 4.40234 9.75574 5.17871 9.75574C5.95508 9.75574 6.58594 9.12439 6.58594 8.34851C6.58594 7.57251 5.95508 6.94116 5.17871 6.94116ZM5.17871 8.8175C4.91992 8.8175 4.70996 8.60706 4.70996 8.34851C4.70996 8.08984 4.91992 7.87939 5.17871 7.87939C5.4375 7.87939 5.64746 8.08984 5.64746 8.34851C5.64746 8.60706 5.4375 8.8175 5.17871 8.8175Z" fill="#E0001B" fill-opacity="1.000000" fill-rule="nonzero"/>
		<path id="Vector" d="M9.87012 9.75574C10.6465 9.75574 11.2773 9.12439 11.2773 8.34851C11.2773 7.57251 10.6465 6.94116 9.87012 6.94116C9.09375 6.94116 8.46289 7.57251 8.46289 8.34851C8.46289 9.12439 9.09375 9.75574 9.87012 9.75574ZM9.87012 7.87939C10.1289 7.87939 10.3389 8.08984 10.3389 8.34851C10.3389 8.60706 10.1289 8.8175 9.87012 8.8175C9.61133 8.8175 9.40137 8.60706 9.40137 8.34851C9.40137 8.08984 9.61133 7.87939 9.87012 7.87939Z" fill="#E0001B" fill-opacity="1.000000" fill-rule="nonzero"/>
		<path id="Vector" d="M7.4541 5.91956C7.49609 5.66406 7.73828 5.49146 7.99414 5.53394C8.24902 5.57654 8.42188 5.81824 8.37891 6.07385L7.5957 10.7775C7.55273 11.0331 7.31055 11.2057 7.05566 11.1631C6.7998 11.1205 6.62695 10.8788 6.66992 10.6233L7.4541 5.91956Z" fill="#E0001B" fill-opacity="1.000000" fill-rule="nonzero"/>
	</g>
</svg>
