<svg width="26.633789" height="24.000000" viewBox="0 0 26.6338 24" fill="none" xmlns="http://www.w3.org/2000/svg" xmlns:xlink="http://www.w3.org/1999/xlink">
	<defs/>
	<path id="Vector" d="M25.0137 9.2915L23.3438 9.50916L23.3438 8.06396C25.2158 7.69897 26.6338 6.04663 26.6338 4.06946C26.6338 1.82556 24.8076 0 22.5635 0C20.3203 0 18.4941 1.82568 18.4941 4.06946C18.4941 6.04675 19.9121 7.6991 21.7832 8.06396L21.7832 9.71252L4.84961 11.92L4.84961 10.7507C6.72168 10.3857 8.13867 8.7334 8.13867 6.75635C8.13867 4.51245 6.31348 2.68689 4.06934 2.68689C1.8252 2.68689 0 4.51245 0 6.75635C0 8.73352 1.41699 10.3859 3.28906 10.7507L3.28906 12.1234L1.47363 12.3601C1.04688 12.4158 0.745117 12.8074 0.800781 13.2345C0.852539 13.6276 1.1875 13.9139 1.57422 13.9139C1.60742 13.9139 1.6416 13.9117 1.67578 13.9072L12.2285 12.5316L9.94043 22.4397L9.22949 22.4397C8.79785 22.4397 8.44922 22.7889 8.44922 23.2198C8.44922 23.6508 8.79785 24 9.22949 24L17.4082 24C17.8389 24 18.1885 23.6508 18.1885 23.2198C18.1885 22.7889 17.8389 22.4397 17.4082 22.4397L16.6885 22.4397L14.2031 12.2742L25.2148 10.8386C25.6426 10.783 25.9434 10.3914 25.8877 9.96423C25.832 9.53699 25.4404 9.23572 25.0137 9.2915ZM1.56055 6.75635C1.56055 5.3728 2.68555 4.24707 4.06934 4.24707C5.45312 4.24707 6.5791 5.3728 6.5791 6.75635C6.5791 8.13989 5.45312 9.2655 4.06934 9.2655C2.68555 9.2655 1.56055 8.13989 1.56055 6.75635ZM15.082 22.4397L11.542 22.4397L13.2617 14.9933L15.082 22.4397ZM20.0547 4.06946C20.0547 2.68591 21.1807 1.56018 22.5635 1.56018C23.9473 1.56018 25.0732 2.68591 25.0732 4.06946C25.0732 5.45312 23.9473 6.57874 22.5635 6.57874C21.1807 6.57874 20.0547 5.45312 20.0547 4.06946Z" fill="#1D1D1B" fill-opacity="1.000000" fill-rule="nonzero"/>
</svg>
